<?xml version="1.0" encoding="utf-8"?>
<!-- Generator: Adobe Illustrator 16.0.0, SVG Export Plug-In . SVG Version: 6.00 Build 0)  -->
<!DOCTYPE svg PUBLIC "-//W3C//DTD SVG 1.1//EN" "http://www.w3.org/Graphics/SVG/1.1/DTD/svg11.dtd">
<svg version="1.1" id="Layer_1" xmlns="http://www.w3.org/2000/svg" xmlns:xlink="http://www.w3.org/1999/xlink" x="0px" y="0px"
	 width="1700px" height="440px" viewBox="0 0 1700 440" enable-background="new 0 0 1700 440" xml:space="preserve">
<path fill="#3F3832" d="M1700,440V104.979c-35.058,2.028-68.694,7.428-104.424,2.693c-42.932-5.688-88.257-10.176-132.314-12.707
	h-106.95c-22.944,1.044-45.855,2.225-68.833,2.404c-66.955,0.521-130.97,10.299-197.422,12.476
	c-33.114,1.085-63.046,7.558-95.336,10.291c-44.67,3.782-92.25-16.737-137.229-14.74c-75.606,3.358-151.199,5.341-227.096,5.341
	c-74.397,0-147.7-5.978-221.414-9.003c-66.694-2.735-134.885,4.973-201.479,7.263c-40.191,1.38-75.181,0.02-112.81-8.458
	c-13.532-3.048-29.32-4.774-45.368-5.572H2.288V440H1700z"/>
</svg>
