<?xml version="1.0" encoding="utf-8"?>
<!-- Generator: Adobe Illustrator 16.0.0, SVG Export Plug-In . SVG Version: 6.00 Build 0)  -->
<!DOCTYPE svg PUBLIC "-//W3C//DTD SVG 1.1//EN" "http://www.w3.org/Graphics/SVG/1.1/DTD/svg11.dtd">
<svg version="1.1" id="Layer_1" xmlns="http://www.w3.org/2000/svg" xmlns:xlink="http://www.w3.org/1999/xlink" x="0px" y="0px"
	 width="1700px" height="440px" viewBox="0 0 1700 440" enable-background="new 0 0 1700 440" xml:space="preserve">
<path fill="#403933" d="M1700-5.489H0v347.798c25.867,0.34,54.34-1.209,76.768-6.416c38.541-8.95,74.377-10.386,115.539-8.929
	c68.207,2.418,138.047,10.555,206.355,7.666c75.495-3.192,150.572-9.502,226.77-9.502c77.733,0,155.155,2.092,232.59,5.637
	c46.067,2.107,94.797-19.549,140.55-15.559c33.069,2.885,63.726,9.717,97.642,10.861c68.059,2.299,133.624,12.619,202.198,13.168
	c52.055,0.418,103.783,6.02,156.277,3.763c52.408-2.252,107.543-7.572,159.275-14.638c29.441-4.021,57.494-1.117,86.035,1.286
	V-5.489z"/>
<g>
</g>
<g>
</g>
<g>
</g>
<g>
</g>
<g>
</g>
<g>
</g>
</svg>
