<?xml version="1.0" encoding="utf-8"?>
<!-- Generator: Adobe Illustrator 16.0.0, SVG Export Plug-In . SVG Version: 6.00 Build 0)  -->
<!DOCTYPE svg PUBLIC "-//W3C//DTD SVG 1.1//EN" "http://www.w3.org/Graphics/SVG/1.1/DTD/svg11.dtd">
<svg version="1.1" id="Layer_1" xmlns="http://www.w3.org/2000/svg" xmlns:xlink="http://www.w3.org/1999/xlink" x="0px" y="0px"
	 width="511.641px" height="39.562px" viewBox="531.973 574 511.641 39.562" enable-background="new 531.973 574 511.641 39.562" xml:space="preserve">
<path fill="#3F3832" d="M1038.456,574v11.648h-2.125c0.093-3.818,0.225-7.742,0.365-11.648h-3.002
	c-0.141,3.9-0.271,7.819-0.364,11.636l-0.048,0.013H794.981c-40.053-4.904-79.233-9.312-118.245-9.398l-1.216-0.001
	c-14.728,0-29.729,0.597-44.236,1.175c-14.524,0.578-29.544,1.176-44.306,1.176c-7.034,0-14.178,2.12-21.087,4.171
	c-3.495,1.037-7.107,2.109-10.625,2.878h-17.685L537.332,574h-3.876v11.648l0,0v1.933v1.067h3.55c5.386,1.574,11.105,1.599,18.581,0
	h239.21l10.269,1.263c42.546,5.244,86.54,10.667,129.606,10.665c36.588-0.001,68.978-3.903,99.006-11.928h7.778v-2.084l0.761-0.204
	l-0.761-0.712V574H1038.456z M569.469,585.648h-2.73c0.002-0.001,0.005-0.002,0.007-0.002c6.703-1.989,13.635-4.047,20.233-4.047
	c14.821,0,29.871-0.6,44.425-1.179c14.479-0.576,29.449-1.172,44.117-1.172l1.21,0.001c30.697,0.068,61.547,2.829,92.856,6.398
	H569.469z M934.672,597.576c-38.197,0.001-77.199-4.291-115.271-8.928h201.759C994.698,594.647,966.269,597.575,934.672,597.576z"/>
</svg>
