<?xml version="1.0" encoding="utf-8"?>
<!-- Generator: Adobe Illustrator 16.0.0, SVG Export Plug-In . SVG Version: 6.00 Build 0)  -->
<!DOCTYPE svg PUBLIC "-//W3C//DTD SVG 1.1//EN" "http://www.w3.org/Graphics/SVG/1.1/DTD/svg11.dtd">
<svg version="1.1" id="Layer_1" xmlns="http://www.w3.org/2000/svg" xmlns:xlink="http://www.w3.org/1999/xlink" x="0px" y="0px"
	 width="33.5px" height="565px" viewBox="466.5 0 33.5 565" enable-background="new 466.5 0 33.5 565" xml:space="preserve">
<path fill="#3F3832" d="M481.205,19.5v0.782c0.424-0.078,0.848-0.156,1.268-0.252c0.294,14.854,0.271,29.309,0.248,43.306
	c-0.036,21.965-0.069,42.712,1.007,65.076l0.54,11.139c0.384,7.894,0.768,15.767,1.129,23.645v185.114
	c-0.38,16.495-0.769,33.041-1.157,49.588c-0.87,37.04-1.77,75.341-2.555,112.513c-0.103,4.872-0.288,10.101-0.479,15.247v18.307
	h2.384c0.132-5.23,0.334-10.662,0.53-15.934c0.22-5.873,0.447-11.946,0.565-17.558c0.229-10.836,0.467-21.771,0.712-32.74v66.231h3
	V348.347c0.813-35.301,1.399-62.297,1.902-87.524c0.686-34.454-0.509-67.315-1.902-97.697V19.5H481.205z"/>
</svg>
