<?xml version="1.0" encoding="utf-8"?>
<!-- Generator: Adobe Illustrator 16.0.0, SVG Export Plug-In . SVG Version: 6.00 Build 0)  -->
<!DOCTYPE svg PUBLIC "-//W3C//DTD SVG 1.1//EN" "http://www.w3.org/Graphics/SVG/1.1/DTD/svg11.dtd">
<svg version="1.1" id="Layer_1" xmlns="http://www.w3.org/2000/svg" xmlns:xlink="http://www.w3.org/1999/xlink" x="0px" y="0px"
	 width="511.641px" height="39px" viewBox="531.973 0 511.641 39" enable-background="new 531.973 0 511.641 39"
	 xml:space="preserve">
<path fill="#3F3832" d="M1001.803,18.866c-3.058-1.21-6.22-2.46-9.396-3.57c-5.384-1.881-10.769-2.796-16.462-2.796
	c-10.866,0-21.214,3.393-30.889,6.896H552.904c-0.801,0-1.878-0.215-3.02-0.443c-1.396-0.279-2.978-0.596-4.487-0.596
	c-1.816,0-3.251,0.451-4.385,1.377c-2.366,1.931-4.127,4.855-5.384,8.938c-0.858,1.825-1.375,4.34-1.67,8.121
	c-0.094,0.718-0.175,1.46-0.253,2.206h3.118c0.036-0.66,0.074-1.301,0.12-1.895c0.378-2.857,0.864-5.258,1.486-7.334
	c1.078-2.134,2.884-2.914,7.322-3.196c4.478-0.284,9.172-0.428,13.953-0.428c21.74,0,46.185,2.93,70.688,8.474
	c6.181,1.398,12.632,2.078,19.722,2.078c12.443,0,24.98-2.143,37.104-4.216c6.503-1.112,13.229-2.262,19.79-3.049
	c9.428-1.13,19.248-1.68,30.023-1.68c21.314,0,43.14,2.221,64.247,4.368c21.224,2.159,43.17,4.393,64.722,4.393
	c28.253,0,51.603-3.772,73.483-11.872l1.107-0.41c1.676-0.621,3.339-1.236,4.99-1.837h56.993c8.842,3.479,16.857,6.34,25.207,6.34
	c2.615,0,5.101-0.278,7.545-0.848c0.074,3.729,0.126,7.431,0.167,11.111h5.945V19.396h-38.294L1001.803,18.866z M866.003,33.516
	c-21.399,0-43.269-2.226-64.418-4.377c-21.182-2.155-43.084-4.384-64.551-4.384c-10.896,0-20.833,0.557-30.381,1.701
	c-6.637,0.796-13.398,1.952-19.938,3.07c-12,2.052-24.41,4.173-36.599,4.173c-6.864,0-13.099-0.655-19.06-2.004
	c-24.718-5.592-49.391-8.548-71.351-8.548c-4.844,0-9.603,0.146-14.143,0.434c-1.752,0.111-3.307,0.309-4.664,0.701
	c0.605-0.884,1.273-1.623,2.011-2.224c0.585-0.479,1.375-0.701,2.487-0.701c1.213,0,2.579,0.273,3.899,0.537
	c1.291,0.258,2.51,0.502,3.607,0.502h383.987C915.8,29.979,893.221,33.516,866.003,33.516z M954.294,19.396
	c6.976-2.208,14.232-3.896,21.651-3.896c5.351,0,10.411,0.86,15.472,2.628c1.161,0.405,2.323,0.832,3.481,1.269H954.294z
	 M1038.441,22.396v12.042c-0.041-2.825-0.091-5.666-0.152-8.52l-0.043-1.965l-1.884,0.559c-2.775,0.823-5.581,1.224-8.578,1.224
	c-5.493,0-10.94-1.363-16.657-3.34H1038.441z"/>
</svg>
