<?xml version="1.0" encoding="utf-8"?>
<!-- Generator: Adobe Illustrator 16.0.0, SVG Export Plug-In . SVG Version: 6.00 Build 0)  -->
<!DOCTYPE svg PUBLIC "-//W3C//DTD SVG 1.1//EN" "http://www.w3.org/Graphics/SVG/1.1/DTD/svg11.dtd">
<svg version="1.1" id="Layer_1" xmlns="http://www.w3.org/2000/svg" xmlns:xlink="http://www.w3.org/1999/xlink" x="0px" y="0px"
	 width="33.5px" height="565px" viewBox="0 0 33.5 565" enable-background="new 0 0 33.5 565" xml:space="preserve">
<path fill="#3F3832" d="M12.104,0v0.843c0.424-0.084,0.848-0.168,1.268-0.271c0.294,16.001,0.271,31.574,0.248,46.653
	c-0.036,23.662-0.068,46.013,1.007,70.106l0.54,11.999c0.385,8.505,0.769,16.986,1.129,25.473v199.421
	c-0.38,17.77-0.769,35.595-1.156,53.422c-0.87,39.902-1.771,81.163-2.556,121.209c-0.103,5.248-0.288,10.881-0.479,16.425v19.722
	h2.384c0.132-5.634,0.334-11.486,0.53-17.165c0.22-6.327,0.447-12.869,0.564-18.916c0.229-11.674,0.468-23.453,0.712-35.27V565h3
	V354.264c0.813-38.029,1.399-67.112,1.902-94.289c0.687-37.117-0.509-72.518-1.902-105.249V0H12.104z"/>
</svg>
