<?xml version="1.0" encoding="utf-8"?>
<!-- Generator: Adobe Illustrator 16.0.0, SVG Export Plug-In . SVG Version: 6.00 Build 0)  -->
<!DOCTYPE svg PUBLIC "-//W3C//DTD SVG 1.1//EN" "http://www.w3.org/Graphics/SVG/1.1/DTD/svg11.dtd">
<svg version="1.1" id="Layer_1" xmlns="http://www.w3.org/2000/svg" xmlns:xlink="http://www.w3.org/1999/xlink" x="0px" y="0px"
	 width="500px" height="39px" viewBox="0 0 500 39" enable-background="new 0 0 500 39" xml:space="preserve">
<path fill="#3F3832" d="M482.5,19.5h5.896v-7.656h-36.077l-1.251-0.494c-2.876-1.137-5.85-2.313-8.837-3.357
	c-5.072-1.772-10.145-2.634-15.507-2.634c-10.228,0-19.962,3.19-29.059,6.485H28.941c-0.744,0-1.753-0.202-2.821-0.416
	c-1.316-0.263-2.809-0.562-4.237-0.562c-1.729,0-3.097,0.43-4.18,1.315c-2.012,1.642-3.558,4.049-4.712,7.318h4.933
	c1.034-0.389,2.407-0.607,4.3-0.728c4.208-0.267,8.62-0.402,13.112-0.402c20.436,0,43.414,2.755,66.45,7.967
	c5.817,1.316,11.89,1.957,18.562,1.957c11.707,0,23.499-2.016,34.902-3.966c6.114-1.045,12.438-2.126,18.606-2.866
	c8.863-1.063,18.095-1.58,28.225-1.58c20.039,0,40.558,2.088,60.4,4.107c19.957,2.031,40.593,4.131,60.865,4.131
	c26.576,0,48.541-3.549,69.125-11.169l1.04-0.385c1.571-0.582,3.13-1.159,4.678-1.722h53.559c8.315,3.271,15.855,5.961,23.718,5.961
	c2.427,0,4.735-0.254,7.006-0.774c0.012,0.611,0.017,1.211,0.027,1.82V19.5z M323.348,25.12c-20.12,0-40.68-2.092-60.562-4.115
	c-19.917-2.027-40.513-4.123-60.704-4.123c-10.25,0-19.6,0.524-28.582,1.601c-6.242,0.749-12.604,1.836-18.754,2.888
	c-11.281,1.929-22.945,3.923-34.397,3.923c-6.448,0-12.303-0.616-17.9-1.882c-23.25-5.261-46.457-8.041-67.112-8.041
	c-4.557,0-9.031,0.137-13.303,0.408c-1.549,0.099-2.938,0.269-4.162,0.595c0.525-0.734,1.102-1.355,1.73-1.868
	c0.533-0.436,1.258-0.639,2.281-0.639c1.132,0,2.411,0.256,3.648,0.503c1.219,0.244,2.369,0.474,3.41,0.474h360.544
	C369.803,21.85,348.719,25.12,323.348,25.12z M406.948,11.844c6.381-1.988,13.008-3.485,19.776-3.485
	c5.02,0,9.769,0.807,14.517,2.466c0.938,0.328,1.876,0.669,2.812,1.02H406.948z M460.343,14.844h25.054v1.562L485.39,16.1
	l-1.884,0.559c-2.601,0.771-5.23,1.146-8.039,1.146C470.476,17.805,465.524,16.604,460.343,14.844z"/>
</svg>
