<?xml version="1.0" encoding="utf-8"?>
<!-- Generator: Adobe Illustrator 16.0.0, SVG Export Plug-In . SVG Version: 6.00 Build 0)  -->
<!DOCTYPE svg PUBLIC "-//W3C//DTD SVG 1.1//EN" "http://www.w3.org/Graphics/SVG/1.1/DTD/svg11.dtd">
<svg version="1.1" id="Layer_1" xmlns="http://www.w3.org/2000/svg" xmlns:xlink="http://www.w3.org/1999/xlink" x="0px" y="0px"
	 width="500px" height="39px" viewBox="0 0 500 39" enable-background="new 0 0 500 39" xml:space="preserve">
<g>
	<path fill="#3F3832" d="M501.506,16.168v-0.333h-3.146v0.333h-1.905c0.003-0.11,0.006-0.223,0.01-0.333h-3.146
		c-0.003,0.11-0.006,0.223-0.01,0.333H258.374c-39.5-4.813-78.142-9.136-116.612-9.221l-1.202-0.001
		c-14.525,0-29.317,0.586-43.625,1.151C82.613,8.665,67.805,9.252,53.25,9.252c-6.95,0-14.001,2.082-20.82,4.095
		c-3.441,1.017-7.001,2.066-10.464,2.82H4.633l-0.007-0.333H0.377v0.333H-6.5l6.878,2.059v1.071h3.586
		c5.315,1.542,10.961,1.566,18.339,0h235.877l10.117,1.239C310.255,25.683,353.641,31.001,396.113,31
		c36.083-0.001,68.024-3.829,97.642-11.703h7.751v-2.065l3.994-1.065L501.506,16.168L501.506,16.168z M36.867,16.168h-2.928
		c6.412-1.892,13.019-3.785,19.312-3.785c14.618,0,29.459-0.588,43.811-1.157c14.275-0.565,29.037-1.15,43.499-1.15l1.195,0
		c29.729,0.064,59.604,2.679,89.913,6.091H36.867z M396.113,27.871c-37.146,0.001-75.066-4.096-112.117-8.572h196.56
		C454.701,25.059,426.938,27.87,396.113,27.871z"/>
</g>
</svg>
