<?xml version="1.0" encoding="utf-8"?>
<!-- Generator: Adobe Illustrator 16.0.0, SVG Export Plug-In . SVG Version: 6.00 Build 0)  -->
<!DOCTYPE svg PUBLIC "-//W3C//DTD SVG 1.1//EN" "http://www.w3.org/Graphics/SVG/1.1/DTD/svg11.dtd">
<svg version="1.1" id="Layer_1" xmlns="http://www.w3.org/2000/svg" xmlns:xlink="http://www.w3.org/1999/xlink" x="0px" y="0px"
	 width="500px" height="39px" viewBox="0 0 500 39" enable-background="new 0 0 500 39" xml:space="preserve">
<path fill="#3F3832" d="M498.236,19.5h6.264v-7.656h-38.323l-1.329-0.494c-3.056-1.137-6.215-2.313-9.388-3.357
	c-5.388-1.772-10.776-2.634-16.473-2.634c-10.864,0-21.205,3.19-30.868,6.485H16.436c-0.79,0-1.861-0.202-2.996-0.416
	c-1.397-0.263-2.984-0.562-4.501-0.562c-1.836,0-3.29,0.43-4.44,1.315c-2.138,1.642-3.78,4.049-5.005,7.318h5.24
	c1.099-0.389,2.557-0.607,4.568-0.728c4.47-0.267,9.156-0.402,13.928-0.402c21.709,0,46.118,2.755,70.588,7.967
	c6.179,1.316,12.63,1.957,19.718,1.957c12.436,0,24.962-2.016,37.075-3.966c6.495-1.045,13.212-2.126,19.765-2.866
	c9.414-1.063,19.222-1.58,29.982-1.58c21.287,0,43.083,2.088,64.161,4.107c21.199,2.031,43.121,4.131,64.654,4.131
	c28.231,0,51.564-3.549,73.43-11.169l1.105-0.385c1.668-0.582,3.323-1.159,4.969-1.722h56.894
	c8.832,3.271,16.843,5.962,25.194,5.962c2.579,0,5.031-0.255,7.443-0.774c0.013,0.61,0.018,1.211,0.028,1.819L498.236,19.5
	L498.236,19.5z M329.174,25.12c-21.372,0-43.212-2.093-64.332-4.115c-21.157-2.027-43.036-4.123-64.484-4.123
	c-10.888,0-20.82,0.524-30.362,1.601c-6.631,0.749-13.389,1.835-19.921,2.888c-11.984,1.929-24.374,3.923-36.539,3.923
	c-6.85,0-13.07-0.616-19.015-1.882c-24.698-5.261-49.35-8.041-71.292-8.041c-4.841,0-9.593,0.137-14.131,0.408
	c-1.646,0.099-3.121,0.269-4.421,0.595c0.557-0.734,1.17-1.355,1.837-1.868c0.566-0.436,1.336-0.639,2.423-0.639
	c1.203,0,2.561,0.256,3.875,0.503c1.295,0.244,2.517,0.474,3.622,0.474h382.993C378.521,21.85,356.125,25.12,329.174,25.12z
	 M417.98,11.844c6.777-1.988,13.817-3.485,21.007-3.485c5.333,0,10.378,0.807,15.421,2.466c0.996,0.328,1.993,0.669,2.987,1.02
	L417.98,11.844L417.98,11.844z M474.699,14.844h26.614v1.563l-0.007-0.306l-2.002,0.559c-2.763,0.771-5.555,1.146-8.539,1.146
	C485.463,17.805,480.204,16.604,474.699,14.844z"/>
</svg>
