<?xml version="1.0" encoding="utf-8"?>
<!-- Generator: Adobe Illustrator 16.0.0, SVG Export Plug-In . SVG Version: 6.00 Build 0)  -->
<!DOCTYPE svg PUBLIC "-//W3C//DTD SVG 1.1//EN" "http://www.w3.org/Graphics/SVG/1.1/DTD/svg11.dtd">
<svg version="1.1" id="Layer_1" xmlns="http://www.w3.org/2000/svg" xmlns:xlink="http://www.w3.org/1999/xlink" x="0px" y="0px"
	 width="33.5px" height="565px" viewBox="0 0 33.5 565" enable-background="new 0 0 33.5 565" xml:space="preserve">
<path fill="#3F3832" d="M14.603,569l-0.271-13.632c-0.268-13.442-0.535-26.871-0.78-40.282V331.639
	c0.263-8.804,0.577-17.558,0.935-26.021c1.474-34.836,1.707-75.223,0.735-127.097c-0.258-13.777-0.817-27.766-1.409-42.576
	l-0.261-6.539V63.403c0-4.01-0.022-8.034-0.044-12.062c-0.043-7.927-0.088-16.123,0.044-24.122l0.042-2.594
	c0.098-6.118,0.174-10.952,0.432-14.577c0.354-2.896,0.809-5.33,1.389-7.434c0.541-1.159,1.286-1.917,2.51-2.416h-4.933
	C12.862,0.598,12.734,1,12.614,1.423c-0.818,1.89-1.291,4.383-1.572,8.286c-0.875,7.222-0.978,15.884-1.086,25.055
	C9.894,40.057,9.829,45.53,9.612,50.968c-1.003,25.143-0.128,51.482,0.94,78.507v202.108c-1.829,61.479-1.081,124.544,0,183.534
	v53.884L14.603,569L14.603,569z"/>
</svg>
