<?xml version="1.0" encoding="utf-8"?>
<!-- Generator: Adobe Illustrator 16.0.0, SVG Export Plug-In . SVG Version: 6.00 Build 0)  -->
<!DOCTYPE svg PUBLIC "-//W3C//DTD SVG 1.1//EN" "http://www.w3.org/Graphics/SVG/1.1/DTD/svg11.dtd">
<svg version="1.1" id="Layer_1" xmlns="http://www.w3.org/2000/svg" xmlns:xlink="http://www.w3.org/1999/xlink" x="0px" y="0px"
	 width="33.5px" height="565px" viewBox="0 0 33.5 565" enable-background="new 0 0 33.5 565" xml:space="preserve">
<path fill="#3F3832" d="M14.603,543.965l-0.271-12.571c-0.268-12.393-0.535-24.775-0.78-37.14v-169.15
	c0.263-8.116,0.577-16.188,0.935-23.991c1.474-32.121,1.707-69.359,0.735-117.19c-0.258-12.703-0.817-25.602-1.409-39.257
	l-0.261-6.03V77.778c0-3.698-0.022-7.408-0.044-11.122c-0.043-7.309-0.088-14.866,0.044-22.242l0.042-2.392
	c0.098-5.64,0.174-10.098,0.432-13.441c0.354-2.67,0.809-4.914,1.389-6.854c0.541-1.068,1.286-1.767,2.51-2.227h-4.933
	c-0.13,0.368-0.258,0.739-0.378,1.129c-0.818,1.742-1.291,4.041-1.572,7.64c-0.875,6.659-0.978,14.646-1.086,23.102
	c-0.062,4.88-0.127,9.927-0.344,14.941c-1.003,23.182-0.128,47.469,0.94,72.387v186.355c-1.829,56.688-1.081,114.836,0,169.229
	v49.683H14.603z"/>
</svg>
