<?xml version="1.0" encoding="utf-8"?>
<!-- Generator: Adobe Illustrator 16.0.0, SVG Export Plug-In . SVG Version: 6.00 Build 0)  -->
<!DOCTYPE svg PUBLIC "-//W3C//DTD SVG 1.1//EN" "http://www.w3.org/Graphics/SVG/1.1/DTD/svg11.dtd">
<svg version="1.1" id="Layer_1" xmlns="http://www.w3.org/2000/svg" xmlns:xlink="http://www.w3.org/1999/xlink" x="0px" y="0px"
	 width="500px" height="39px" viewBox="0 526 500 39" enable-background="new 0 526 500 39" xml:space="preserve">
<g>
	<path fill="#3F3832" d="M488.396,544.284v-0.319h-3v0.319h-1.816c0.003-0.105,0.006-0.214,0.009-0.319h-3
		c-0.003,0.105-0.006,0.214-0.009,0.319h-224.02c-37.664-4.612-74.51-8.757-111.194-8.838l-1.146-0.001
		c-13.85,0-27.955,0.562-41.598,1.104c-13.656,0.544-27.777,1.106-41.655,1.106c-6.627,0-13.351,1.995-19.853,3.925
		c-3.281,0.975-6.675,1.981-9.978,2.703H14.609l-0.007-0.319h-4.051v0.319H3.993l6.559,1.973v1.027h3.419
		c5.068,1.479,10.452,1.501,17.487,0h224.919l9.647,1.187c40.007,4.932,81.376,10.03,121.877,10.029
		c34.406-0.001,64.864-3.67,93.105-11.216h7.39v-1.979l3.809-1.021H488.396z M45.345,544.284h-2.792
		c6.114-1.813,12.414-3.628,18.415-3.628c13.938,0,28.09-0.563,41.775-1.108c13.612-0.542,27.688-1.103,41.478-1.103l1.139,0.001
		c28.348,0.062,56.836,2.568,85.736,5.838H45.345z M387.901,555.5c-35.42,0.001-71.579-3.926-106.908-8.216h187.426
		C443.767,552.805,417.293,555.499,387.901,555.5z"/>
</g>
</svg>
