<?xml version="1.0" encoding="utf-8"?>
<!-- Generator: Adobe Illustrator 16.0.0, SVG Export Plug-In . SVG Version: 6.00 Build 0)  -->
<!DOCTYPE svg PUBLIC "-//W3C//DTD SVG 1.1//EN" "http://www.w3.org/Graphics/SVG/1.1/DTD/svg11.dtd">
<svg version="1.1" id="Layer_1" xmlns="http://www.w3.org/2000/svg" xmlns:xlink="http://www.w3.org/1999/xlink" x="0px" y="0px"
	 width="500px" height="565px" viewBox="0 0 500 565" enable-background="new 0 0 500 565" xml:space="preserve">
<path fill="none" stroke="#3F3832" stroke-width="3" stroke-miterlimit="10" d="M486.898,545.784H12.052
	c0-156.002,0-312.005,0-468.006c0-11.096-0.199-22.306,0-33.391c0.41-22.918,0.101-26.478,10.077-27.112
	c25.663-1.627,54.344,1.797,79.988,7.599c23.949,5.419,47.926-2.067,71.562-4.902c72.287-8.669,146.374,22.188,218.273-4.428
	c16.953-6.273,32.335-12.233,49.784-6.136c14.383,5.025,27.89,12.932,42.197,8.688c0.824,38.141-0.52,72.564,1.293,110.245
	c2.105,43.795,4.484,86.667,3.573,132.452c-1.63,81.857-3.869,167.015-5.614,249.649c-0.234,11.072-0.873,23.472-1.132,35.006
	c-110.672,30.165-224.458-8.253-336.69-8.502c-28.045-0.062-56.226,2.21-84.395,2.21c-15.813,0-32.213,11.753-47.834,6.285
	c-1.753-82.157-3.843-163.813-0.146-244.397c1.733-37.77,1.514-78.715,0.734-117.092c-0.761-37.511-4.268-79.302-2.612-117.576
	c0.986-22.778-1.163-45.927,7.542-53.032c2.691-2.199,7.441,0,10.29,0c10.881,0,21.761,0,32.642,0c33.456,0,66.912,0,100.368,0
	c78.572,0,157.142,0,235.714,0c29.743,0,59.487,0,89.231,0V545.784z"/>
<g>
</g>
<g>
</g>
<g>
</g>
<g>
</g>
<g>
</g>
<g>
</g>
<g>
</g>
<g>
</g>
<g>
</g>
<g>
</g>
<g>
</g>
<g>
</g>
<g>
</g>
<g>
</g>
<g>
</g>
</svg>
