<?xml version="1.0" encoding="utf-8"?>
<!-- Generator: Adobe Illustrator 16.0.0, SVG Export Plug-In . SVG Version: 6.00 Build 0)  -->
<!DOCTYPE svg PUBLIC "-//W3C//DTD SVG 1.1//EN" "http://www.w3.org/Graphics/SVG/1.1/DTD/svg11.dtd">
<svg version="1.1" id="Layer_1" xmlns="http://www.w3.org/2000/svg" xmlns:xlink="http://www.w3.org/1999/xlink" x="0px" y="0px"
	 width="9.996px" height="535px" viewBox="1033.617 39 9.996 535" enable-background="new 1033.617 39 9.996 535"
	 xml:space="preserve">
<path fill="#3F3832" d="M1035.434,39c0.133,11.951,0.117,23.648,0.099,35.055c-0.037,23.362-0.073,45.429,1.071,69.215l0.574,11.849
	c0.409,8.396,0.816,16.771,1.201,25.149v196.847c-0.406,17.62-0.821,35.294-1.236,52.971c-0.924,39.324-1.879,79.986-2.713,119.446
	c-0.125,5.946-0.366,12.396-0.599,18.634c-0.072,1.929-0.144,3.88-0.214,5.835h3.002c0.068-1.917,0.139-3.83,0.21-5.723
	c0.233-6.25,0.475-12.712,0.601-18.684c0.303-14.333,0.622-28.827,0.949-43.357V574h3V377.147
	c0.864-37.519,1.488-66.222,2.022-93.057c0.729-36.639-0.541-71.585-2.022-103.892V39H1035.434z"/>
</svg>
