<?xml version="1.0" encoding="utf-8"?>
<!-- Generator: Adobe Illustrator 16.0.0, SVG Export Plug-In . SVG Version: 6.00 Build 0)  -->
<!DOCTYPE svg PUBLIC "-//W3C//DTD SVG 1.1//EN" "http://www.w3.org/Graphics/SVG/1.1/DTD/svg11.dtd">
<svg version="1.1" id="Layer_1" xmlns="http://www.w3.org/2000/svg" xmlns:xlink="http://www.w3.org/1999/xlink" x="0px" y="0px"
	 width="9.996px" height="535px" viewBox="1033.617 39 9.996 535" enable-background="new 1033.617 39 9.996 535"
	 xml:space="preserve">
<path fill="#3F3832" d="M537.318,574l-0.047-2.193c-0.284-13.169-0.568-26.324-0.829-39.466V352.473
	c0.279-8.64,0.613-17.231,0.994-25.537c1.566-34.142,1.815-73.743,0.783-124.628c-0.274-13.504-0.869-27.218-1.499-41.738
	l-0.278-6.436V89.422c0-3.933-0.023-7.879-0.047-11.828c-0.047-7.773-0.095-15.812,0.047-23.657l0.044-2.548
	c0.086-4.99,0.159-9.097,0.339-12.389h-3.118c-0.691,6.605-0.795,14.268-0.898,22.342c-0.066,5.19-0.135,10.558-0.366,15.891
	c-1.066,24.651-0.136,50.473,1,76.964v198.226c-1.944,60.271-1.149,122.104,0,179.945V574H537.318z"/>
</svg>
