<?xml version="1.0" encoding="utf-8"?>
<!-- Generator: Adobe Illustrator 16.0.0, SVG Export Plug-In . SVG Version: 6.00 Build 0)  -->
<!DOCTYPE svg PUBLIC "-//W3C//DTD SVG 1.1//EN" "http://www.w3.org/Graphics/SVG/1.1/DTD/svg11.dtd">
<svg version="1.1" id="Layer_1" xmlns="http://www.w3.org/2000/svg" xmlns:xlink="http://www.w3.org/1999/xlink" x="0px" y="0px"
	 width="392.105px" height="304.386px" viewBox="0 0 392.105 304.386" enable-background="new 0 0 392.105 304.386"
	 xml:space="preserve">
<g>
	<path fill="#DED96D" d="M268.235,260.323l-4.99,12.947c0.567,0.4,1.487,0.834,2.763,1.304l1.885,0.692
		c0.142-0.121,0.391-0.666,0.745-1.635c0.356-0.969,1.023-3.139,2.002-6.51c0.979-3.372,1.773-5.891,2.385-7.556
		c0.145-0.391,0.417-0.661,0.82-0.813c0.402-0.15,0.739-0.176,1.012-0.076s0.481,0.207,0.634,0.32
		c0.151,0.113,0.313,0.25,0.486,0.41s0.312,0.278,0.417,0.355c-1.659,4.52-3.92,11.186-6.782,19.997
		c-2.861,8.812-4.346,13.362-4.452,13.651c-0.105,0.289-0.393,0.506-0.861,0.652c-0.468,0.146-0.927,0.137-1.378-0.029
		c-0.45-0.166-0.689-0.629-0.718-1.392c-0.027-0.763,0.149-1.812,0.534-3.146c0.384-1.334,0.733-2.482,1.049-3.447
		c0.132-0.413,0.305-0.881,0.516-1.4c0.263-0.714,0.57-1.525,0.925-2.438c0.626-1.602,0.986-2.529,1.081-2.785l0.074-0.203
		l0.629-1.476l-0.128-0.597l0.019-0.051c-0.313-0.038-0.641-0.119-0.979-0.244l-3.187-1.721l-2.202,5.989l-2.849,8.7
		c-0.181,0.492-0.468,0.883-0.863,1.172s-0.831,0.346-1.307,0.171c-0.697-0.257-0.945-1.065-0.742-2.427
		c0.201-1.363,0.705-3.141,1.51-5.332l3.074-7.895c0.605-1.648,0.914-2.566,0.926-2.756l0.094-0.255
		c0.804-1.768,1.246-2.763,1.327-2.983l3.969-11.904c0.15-0.407,0.427-0.715,0.831-0.924c0.405-0.208,0.812-0.238,1.219-0.088
		C268.825,257.011,268.996,258.251,268.235,260.323z"/>
	<path fill="#DED96D" d="M283.469,289.552l-0.62,3.418c-0.155,0.424-0.37,1.521-0.645,3.291c-0.273,1.77-0.504,2.909-0.691,3.42
		l-0.02,0.051c-0.281,0.764-0.751,1.15-1.409,1.159c-0.731-0.269-1.256-0.597-1.576-0.985c-0.32-0.387-0.356-0.92-0.107-1.6
		c0.544-1.479,1.08-3.721,1.605-6.729l-4.867-2.656c-0.747,1.037-1.459,2.212-2.134,3.525c-0.676,1.314-1.205,2.258-1.59,2.829
		c-0.779,1.18-1.586,1.616-2.418,1.31c-0.408-0.149-0.738-0.42-0.989-0.812c-0.252-0.391-0.302-0.79-0.152-1.198l0.296-0.412
		c5.671-8.193,10.652-16.371,14.943-24.533c0.121-0.225,0.429-0.902,0.921-2.033c1.106-2.486,2.025-3.99,2.757-4.512l1.759,0.646
		c0.475,0.175,0.852,0.438,1.127,0.79c0.275,0.353,0.332,0.749,0.17,1.191c-0.974,2.65-2.066,6.713-3.277,12.188
		C285.338,283.374,284.312,287.259,283.469,289.552z M280.358,289.595c0.087-0.547,0.361-1.453,0.826-2.719
		c0.466-1.266,0.971-2.864,1.517-4.795c0.546-1.93,1.139-4.189,1.782-6.778c0.642-2.589,1.119-4.463,1.428-5.622
		c-4.795,8.17-8.08,13.963-9.855,17.379C276.506,287.669,277.94,288.515,280.358,289.595z"/>
</g>
<g>
	<path fill="#DED96D" d="M342.178,207.624l-4.5,25.006c1.16,0.525,2.965,0.986,5.418,1.39l3.629,0.595
		c0.213-0.269,0.473-1.334,0.775-3.197c0.307-1.865,0.756-5.998,1.35-12.399c0.594-6.4,1.152-11.205,1.676-14.409
		c0.125-0.753,0.523-1.334,1.195-1.746c0.672-0.408,1.268-0.572,1.793-0.486c0.523,0.086,0.938,0.205,1.248,0.355
		c0.312,0.151,0.652,0.342,1.018,0.57s0.656,0.393,0.873,0.495c-1.42,8.7-3.182,21.468-5.283,38.302
		c-2.1,16.832-3.197,25.529-3.289,26.085c-0.09,0.556-0.531,1.046-1.322,1.472c-0.791,0.424-1.619,0.564-2.488,0.423
		c-0.867-0.143-1.457-0.894-1.771-2.254c-0.312-1.362-0.357-3.308-0.125-5.841c0.229-2.531,0.459-4.717,0.693-6.561
		c0.094-0.789,0.242-1.689,0.441-2.697c0.227-1.373,0.5-2.941,0.822-4.701c0.572-3.097,0.898-4.891,0.98-5.382l0.062-0.392
		l0.621-2.871l-0.436-1.028l0.016-0.099c-0.576,0.041-1.193,0.007-1.846-0.1l-6.324-1.993l-1.891,11.53l-2.115,16.629
		c-0.152,0.949-0.535,1.75-1.146,2.406s-1.375,0.908-2.289,0.758c-1.342-0.219-2.068-1.588-2.174-4.107
		c-0.109-2.52,0.182-5.889,0.873-10.108l2.797-15.259c0.52-3.172,0.758-4.931,0.711-5.273l0.082-0.492
		c0.834-3.455,1.287-5.397,1.357-5.823l3.02-22.776c0.131-0.785,0.521-1.434,1.176-1.948c0.656-0.515,1.377-0.709,2.16-0.58
		C342.092,201.464,342.829,203.634,342.178,207.624z"/>
	<path fill="#DED96D" d="M379.672,254.917l0.066,6.358c-0.133,0.817-0.141,2.864-0.021,6.142s0.1,5.404-0.062,6.387l-0.016,0.1
		c-0.242,1.471-0.953,2.327-2.135,2.572c-1.408-0.23-2.465-0.64-3.174-1.227c-0.711-0.584-0.961-1.533-0.746-2.842
		c0.467-2.845,0.656-7.062,0.561-12.652l-9.67-3.095c-0.984,2.122-1.859,4.481-2.617,7.079c-0.762,2.596-1.387,4.475-1.881,5.635
		c-0.996,2.391-2.295,3.453-3.896,3.191c-0.785-0.129-1.473-0.502-2.059-1.119c-0.588-0.613-0.816-1.316-0.688-2.102l0.391-0.843
		c7.363-16.693,13.494-33.12,18.389-49.278c0.141-0.447,0.459-1.771,0.953-3.975c1.131-4.854,2.264-7.875,3.398-9.066l3.387,0.555
		c0.914,0.15,1.684,0.494,2.297,1.031c0.619,0.538,0.857,1.23,0.719,2.082c-0.834,5.102-1.395,12.785-1.68,23.048
		C380.899,243.161,380.395,250.501,379.672,254.917z M374.092,256.069c-0.033-1.014,0.148-2.738,0.545-5.176
		c0.4-2.436,0.756-5.485,1.072-9.145c0.312-3.66,0.598-7.928,0.861-12.805c0.258-4.877,0.469-8.412,0.623-10.604
		c-5.799,16.349-9.703,27.9-11.715,34.656C366.502,253.937,369.372,254.961,374.092,256.069z"/>
</g>
<g>
	<path fill="#DED96D" d="M280.022,190.235l4.631,15.566c0.81-0.033,1.973-0.287,3.49-0.764l2.243-0.707
		c0.04-0.213-0.117-0.896-0.48-2.047c-0.362-1.152-1.292-3.641-2.797-7.467c-1.504-3.824-2.564-6.725-3.188-8.707
		c-0.146-0.465-0.087-0.91,0.179-1.338c0.265-0.429,0.56-0.692,0.881-0.795c0.324-0.102,0.598-0.154,0.819-0.156
		c0.22-0.002,0.469,0.008,0.743,0.033c0.274,0.024,0.489,0.034,0.644,0.031c1.69,5.374,4.356,13.168,8.003,23.383
		c3.646,10.213,5.522,15.49,5.63,15.834s-0.002,0.75-0.332,1.219c-0.329,0.472-0.76,0.791-1.296,0.96
		c-0.538,0.167-1.092-0.091-1.662-0.778c-0.569-0.686-1.156-1.785-1.751-3.296c-0.6-1.511-1.095-2.825-1.492-3.945
		c-0.174-0.478-0.348-1.034-0.523-1.667c-0.269-0.85-0.563-1.821-0.888-2.92c-0.562-1.932-0.891-3.049-0.986-3.353l-0.075-0.243
		l-0.474-1.816l-0.544-0.461l-0.02-0.062c-0.318,0.188-0.682,0.348-1.084,0.475l-4.183,0.683l2.24,7.123l3.577,10.102
		c0.184,0.586,0.197,1.154,0.038,1.704c-0.16,0.55-0.525,0.914-1.09,1.092c-0.829,0.261-1.636-0.313-2.424-1.72
		c-0.785-1.406-1.588-3.414-2.409-6.021l-2.794-9.514c-0.617-1.961-0.984-3.033-1.111-3.215l-0.094-0.304
		c-0.519-2.213-0.819-3.452-0.902-3.714l-4.829-13.871c-0.151-0.485-0.118-0.969,0.109-1.451c0.226-0.481,0.581-0.799,1.067-0.951
		C278.201,186.743,279.246,187.771,280.022,190.235z"/>
	<path fill="#DED96D" d="M311.569,190.972l0.393,1.043c5.777,18.37,5.998,28.395,0.664,30.072c-2.057,0.668-3.844,0.311-5.369-1.076
		c-1.576-1.414-2.746-2.943-3.51-4.592c-1.178-2.54-2.328-5.514-3.456-8.924c-1.127-3.41-2.71-8.348-4.743-14.814l-3.066-8.795
		c0.11-0.99,0.414-1.563,0.911-1.72c0.492-0.156,1.053,0.084,1.673,0.724c0.623,0.637,1.067,1.379,1.334,2.228l5.312,16.884
		c0.463,1.477,1.301,3.621,2.508,6.441c1.209,2.816,2.045,4.965,2.508,6.439c0.955,3.031,2.744,4.133,5.373,3.307
		c2.951-0.928,0.926-12.518-6.074-34.768l-1.098-3.485l-0.355-1.021c-0.15-0.486-0.154-0.885-0.006-1.197
		c0.146-0.312,0.496-0.556,1.051-0.73c0.559-0.174,1.004-0.216,1.344-0.123c0.314,0.08,0.582,0.262,0.807,0.547
		c0.32,0.455,0.621,1.093,0.9,1.914l1.541,6.379L311.569,190.972z"/>
</g>
<g>
	<g opacity="0.82">
		<g>
			<path fill="#291E16" d="M88.75,206.888c0,0,47.182-59.268,90.828-9.104C179.579,197.784,141.426,152.992,88.75,206.888z"/>
		</g>
		<g>
			<path fill="#291E16" d="M92.834,222.655c0,0,36.976-65.913,88.204-23.225C181.039,199.431,136.108,161.19,92.834,222.655z"/>
		</g>
		<g>
			<g>
				<path fill="#291E16" d="M264.518,195.334c0,0-51.035-39.971-77.145,10.077C187.374,205.411,210.001,160.883,264.518,195.334z"/>
			</g>
			<g>
				<path fill="#291E16" d="M264.007,207.114c0,0-45.312-46.157-77.817,0.139C186.19,207.253,214.507,165.977,264.007,207.114z"/>
			</g>
		</g>
	</g>
	<g>
		<path fill="#423020" d="M311.528,98.909c-3.25-24.97-21.568-43.23-40.924-40.808c-5.779,0.729-10.991,3.226-15.379,7.03
			c-14.416-20.206-35.726-35.007-60.137-41.504c-11.38-2.302-21.339-3.538-33.29-3.538c-2.806,0.139-5.642,0.372-8.479,0.729
			c-45.309,5.685-80.401,38.276-90.845,79.352c-4.679-1.957-9.656-2.741-14.708-2.104c-19.356,2.422-32.412,24.632-29.172,49.594
			c3.242,24.966,21.562,43.233,40.923,40.817c6.71-0.857,12.646-4.055,17.427-8.95c21.046,24.477,58.544,30.465,100.295,25.229
			c45.425-5.705,82.582-23.014,93.854-57.135c3.641,1.03,7.429,1.377,11.267,0.889C301.708,146.075,314.768,123.882,311.528,98.909z
			"/>
		<path fill="none" stroke="#231913" stroke-width="0.5679" d="M311.528,98.909c-3.25-24.97-21.568-43.23-40.924-40.808
			c-5.779,0.729-10.991,3.226-15.379,7.03c-14.416-20.206-35.726-35.007-60.137-41.504c-11.38-2.302-21.339-3.538-33.29-3.538
			c-2.806,0.139-5.642,0.372-8.479,0.729c-45.309,5.685-80.401,38.276-90.845,79.352c-4.679-1.957-9.656-2.741-14.708-2.104
			c-19.356,2.422-32.412,24.632-29.172,49.594c3.242,24.966,21.562,43.233,40.923,40.817c6.71-0.857,12.646-4.055,17.427-8.95
			c21.046,24.477,58.544,30.465,100.295,25.229c45.425-5.705,82.582-23.014,93.854-57.135c3.641,1.03,7.429,1.377,11.267,0.889
			C301.708,146.075,314.768,123.882,311.528,98.909z"/>
	</g>
	<g opacity="0.82">
		<path fill="#291E16" d="M310.278,91.973c-1.189,20.211-13.089,36.6-29.563,38.667c-3.833,0.483-7.617,0.139-11.256-0.883
			c-11.277,34.114-48.445,51.434-93.866,57.135c-41.744,5.239-79.24-0.764-100.288-25.225c-4.782,4.877-10.723,8.089-17.42,8.918
			c-17.983,2.269-35.048-13.316-40.008-35.561c-0.202,3.555-0.092,7.221,0.402,10.941c3.24,24.966,21.567,43.238,40.926,40.8
			c6.694-0.841,12.646-4.047,17.417-8.92c21.045,24.46,58.545,30.443,100.294,25.209c45.43-5.689,82.589-23.011,93.858-57.132
			c3.646,1.036,7.428,1.38,11.258,0.897c19.355-2.431,32.428-24.63,29.184-49.608C310.971,95.429,310.659,93.688,310.278,91.973z"/>
	</g>
	<g opacity="0.27">
		<path fill="#A4814E" d="M195.19,38.654c30.644,8.878,45.675,22.56,60.101,42.759c4.392-3.796,9.603-6.287,15.384-7.013
			c18.434-2.315,35.912,14.146,40.354,37.275c0.09-3.021-0.062-6.145-0.473-9.291c-3.248-24.965-21.566-43.239-40.926-40.8
			c-5.779,0.718-10.991,3.22-15.384,7.017c-14.414-20.206-35.731-35.005-60.128-41.507c-12.891-4.313-33.296-3.538-33.296-3.538
			c-2.803,0.157-5.638,0.395-8.473,0.747c-45.32,5.679-80.399,38.25-90.854,79.326c-4.668-1.937-9.648-2.726-14.7-2.102
			c-19.352,2.425-32.416,24.641-29.177,49.604c0.166,1.193,0.357,2.366,0.578,3.527c0.628-20.975,12.728-38.179,29.639-40.309
			c5.059-0.636,10.039,0.153,14.702,2.102c10.444-41.067,45.542-73.664,90.868-79.332C155.984,36.783,177.061,35.408,195.19,38.654z
			"/>
	</g>
	<g opacity="0.34">
		<path fill="#87653F" d="M58.12,102.811c0,0,14.08-35.152,42.193-58.33c17.15-14.155,39.241-24.504,64.615-23.931
			c17.841,0.903,28.771,3.409,29.859,3.483c41.378,14.737,45.681,24.152,61.048,42.399c0,0-52.157-17.971-106.014-11.6
			C118.901,58.476,70.687,97.7,58.12,102.811z"/>
	</g>
	<g>
		<g>
			
				<radialGradient id="SVGID_1_" cx="164.5454" cy="168.4502" r="19.751" gradientTransform="matrix(4.5159 0 0 4.4367 -579.3568 -624.0105)" gradientUnits="userSpaceOnUse">
				<stop  offset="0" style="stop-color:#A27F50"/>
				<stop  offset="0.4878" style="stop-color:#A17E4F"/>
				<stop  offset="0.6635" style="stop-color:#9C794B"/>
				<stop  offset="0.7887" style="stop-color:#937044"/>
				<stop  offset="0.8899" style="stop-color:#86633B"/>
				<stop  offset="0.9756" style="stop-color:#76542F"/>
				<stop  offset="1" style="stop-color:#714F2C"/>
			</radialGradient>
			<path fill="url(#SVGID_1_)" d="M163.448,72.954c0,0-71.522-41.51-90.37,21.653c-9.46,31.728-1.315,60.018,49.222,95.692
				c53.691,37.852,108.018,0.953,125.093-47.195c8.392-23.704,17.938-51.248,1.029-78.209
				C248.421,64.895,200.088,5.628,163.448,72.954z"/>
			<path fill="none" stroke="#442C1A" stroke-width="0.5679" d="M163.448,72.954c0,0-71.522-41.51-90.37,21.653
				c-9.46,31.728-1.315,60.018,49.222,95.692c53.691,37.852,108.018,0.953,125.093-47.195c8.392-23.704,17.938-51.248,1.029-78.209
				C248.421,64.895,200.088,5.628,163.448,72.954z"/>
		</g>
	</g>
	<g opacity="0.47">
		<path fill="#BB9C6C" d="M74.594,113.152c18.837-63.16,90.365-21.662,90.365-21.662c36.632-67.329,84.968-8.064,84.968-8.064
			c3.881,6.182,6.356,12.389,7.789,18.595c0.635-12.067-1.588-24.404-9.259-36.634c0,0-48.341-59.259-84.96,8.073
			c0,0-71.54-41.515-90.377,21.639c-3.593,12.045-4.631,23.596-1.803,35.237C71.726,124.677,72.862,118.967,74.594,113.152z"/>
	</g>
	<path fill="#A27F50" d="M215.339,162.226c0,0,18.904-4.279,21.978,14.57c0.483,2.998-0.688,9.798,0.584,14.26
		c6.695,23.637,16.94,55.3-68.691,63.284c0,0-63.009,17.238-54.875-45.442c0,0-7.898-19.523,11.897-29.138L215.339,162.226z"/>
	<path fill="none" stroke="#4C3F38" stroke-width="0.5679" d="M211.807,202.296c0,0,14.946,9.396,6.43,20.898"/>
	<path fill="none" stroke="#7A5730" stroke-width="1.7036" d="M154.879,143.662c1.045-0.13,12.655-8.041,27.517-3.45"/>
	<path fill="none" stroke="#7A5730" stroke-width="1.7036" d="M151.505,141.418c1.043-0.128,13.928-10.801,33.77-3.932"/>
	<g opacity="0.65">
		
			<radialGradient id="SVGID_2_" cx="253.4497" cy="386.4248" r="11.4662" gradientTransform="matrix(4.5015 -0.3542 0.3605 4.4223 -1102.7067 -1396.1262)" gradientUnits="userSpaceOnUse">
			<stop  offset="0" style="stop-color:#BC9B66;stop-opacity:0"/>
			<stop  offset="0.1697" style="stop-color:#B89864;stop-opacity:0.1697"/>
			<stop  offset="0.3281" style="stop-color:#AE8E5F;stop-opacity:0.3281"/>
			<stop  offset="0.482" style="stop-color:#9D7F57;stop-opacity:0.482"/>
			<stop  offset="0.6332" style="stop-color:#866B4C;stop-opacity:0.6332"/>
			<stop  offset="0.7824" style="stop-color:#6A543D;stop-opacity:0.7824"/>
			<stop  offset="0.9281" style="stop-color:#4D3A2C;stop-opacity:0.9281"/>
			<stop  offset="1" style="stop-color:#3E2D22"/>
		</radialGradient>
		<path fill="url(#SVGID_2_)" d="M117.867,199.709c0,0,97.746,121.874,117.953-14.708c0,0,13.809,36.729-0.554,48.412
			c-14.364,11.686-63.582,23.344-77.59,24.535c-23.091,1.978-50.048-8.443-44.435-44.955"/>
	</g>
	<path fill="#C2A981" stroke="#50391E" stroke-width="0.5679" d="M237.095,197.603c2.617,32.182-21.801,60.363-54.571,62.95
		c-32.759,2.562-61.441-21.438-64.077-53.62c-2.608-32.185,21.824-60.36,54.573-62.941
		C205.788,141.408,234.471,165.423,237.095,197.603z"/>
	<g opacity="0.47">
		<path fill="#A27F50" d="M173.813,156.655c30.828-2.428,58.04,18.689,63.325,48.028c0.03-1.868-0.023-3.741-0.174-5.645
			c-2.63-32.188-31.305-56.201-64.071-53.62c-32.759,2.57-57.189,30.761-54.565,62.95c0.15,1.892,0.397,3.755,0.731,5.589
			C119.531,184.178,142.973,159.074,173.813,156.655z"/>
	</g>
	<g>
		<g>
			<path fill="#A27F50" d="M83.595,81.305c0,0,39.729-51.707,78.057-9.163C161.652,72.142,128.134,34.138,83.595,81.305z"/>
		</g>
		<g>
			<path fill="#A27F50" d="M87.355,94.817c0,0,30.836-57.266,75.56-21.264C162.915,73.554,123.671,41.283,87.355,94.817z"/>
		</g>
		<g>
			<g>
				<path fill="#A27F50" d="M225.833,42.893c0,0-51.983-20.967-61.282,26.583C164.551,69.476,172.325,27.33,225.833,42.893z"/>
			</g>
			<g>
				<path fill="#A27F50" d="M228.287,52.735c0,0-48.75-27.421-64.261,18.546C164.026,71.281,177.308,30.47,228.287,52.735z"/>
			</g>
		</g>
	</g>
	
		<linearGradient id="SVGID_3_" gradientUnits="userSpaceOnUse" x1="-348.5542" y1="438.6162" x2="-330.7734" y2="438.6162" gradientTransform="matrix(1.2136 -0.1356 -0.0398 1.0348 629.0225 -378.7344)">
		<stop  offset="0" style="stop-color:#5E3E1F"/>
		<stop  offset="0.1472" style="stop-color:#634323;stop-opacity:0.8528"/>
		<stop  offset="0.369" style="stop-color:#72512E;stop-opacity:0.631"/>
		<stop  offset="0.638" style="stop-color:#8C6A41;stop-opacity:0.362"/>
		<stop  offset="0.9415" style="stop-color:#B3925F;stop-opacity:0.0585"/>
		<stop  offset="1" style="stop-color:#BC9B66;stop-opacity:0"/>
	</linearGradient>
	<path fill="url(#SVGID_3_)" d="M188.319,128.707c0,0,29.494,2.334,19.922-15.549"/>
	<path fill="#372519" d="M200.614,114.93c0.877,6.792-4.003,12.993-10.912,13.864c-6.899,0.858-13.217-3.941-14.097-10.724
		c-0.881-6.783,3.996-12.99,10.91-13.862C193.419,103.348,199.73,108.155,200.614,114.93z"/>
	<g opacity="0.47">
		<path fill="#1A1613" d="M199.455,114.166c0.83,6.477-3.835,12.4-10.432,13.229c-6.599,0.835-12.621-3.753-13.469-10.233
			c-0.838-6.485,3.82-12.414,10.426-13.235C192.567,103.095,198.61,107.684,199.455,114.166z"/>
	</g>
	<path fill="#423020" d="M193.385,116.236c0.314,3.961-2.694,7.437-6.729,7.749c-4.039,0.329-7.563-2.635-7.889-6.603
		c-0.329-3.95,2.687-7.436,6.724-7.737C189.52,109.321,193.055,112.283,193.385,116.236z"/>
	
		<linearGradient id="SVGID_4_" gradientUnits="userSpaceOnUse" x1="-2895.3208" y1="583.3096" x2="-2877.2148" y2="583.3096" gradientTransform="matrix(-1.2458 0.199 -0.0158 1.0426 -3450.7207 97.1492)">
		<stop  offset="0" style="stop-color:#5E3E1F"/>
		<stop  offset="0.1472" style="stop-color:#634323;stop-opacity:0.8528"/>
		<stop  offset="0.369" style="stop-color:#72512E;stop-opacity:0.631"/>
		<stop  offset="0.638" style="stop-color:#8C6A41;stop-opacity:0.362"/>
		<stop  offset="0.9415" style="stop-color:#B3925F;stop-opacity:0.0585"/>
		<stop  offset="1" style="stop-color:#BC9B66;stop-opacity:0"/>
	</linearGradient>
	<path fill="url(#SVGID_4_)" d="M146.962,135.178c0,0-31.031,11.048-20.151-9.753"/>
	<path fill="#372519" d="M131.769,124.135c0.241,6.855,6.057,12.198,13.017,11.988c6.957-0.239,12.402-5.949,12.191-12.801
		c-0.228-6.828-6.064-12.189-13.016-11.954C136.999,111.576,131.542,117.318,131.769,124.135z"/>
	<g opacity="0.47">
		<path fill="#1A1613" d="M132.797,123.203c0.222,6.522,5.787,11.647,12.431,11.435c6.647-0.221,11.857-5.682,11.636-12.212
			c-0.216-6.534-5.781-11.645-12.426-11.44C137.794,111.201,132.576,116.673,132.797,123.203z"/>
	</g>
	<path fill="#423020" d="M139.129,124.297c0.323,3.961,3.844,6.92,7.881,6.607c4.032-0.323,7.049-3.788,6.725-7.749
		c-0.329-3.969-3.85-6.919-7.889-6.616C141.809,116.857,138.802,120.327,139.129,124.297z"/>
	<path fill="#599190" d="M142.102,125.549c-0.736,1.973,0.286,4.14,2.305,4.884c1.992,0.709,4.217-0.292,4.943-2.269
		c0.756-1.968-0.273-4.148-2.282-4.864C145.069,122.578,142.843,123.579,142.102,125.549z"/>
	<path fill="#599190" d="M183.958,119.467c-0.731,1.964,0.301,4.139,2.299,4.872c2,0.729,4.226-0.29,4.967-2.246
		c0.729-1.953-0.292-4.16-2.297-4.887C186.927,116.494,184.708,117.499,183.958,119.467z"/>
	<path fill="none" stroke="#4C3F38" stroke-width="0.5679" d="M136.228,222.487"/>
	<g>
		
			<linearGradient id="SVGID_5_" gradientUnits="userSpaceOnUse" x1="-750.0361" y1="-472.2148" x2="-723.8291" y2="-472.2148" gradientTransform="matrix(0.5754 0.8179 -0.8179 0.5754 208.6112 1033.7706)">
			<stop  offset="0" style="stop-color:#5E3E1F"/>
			<stop  offset="0.1472" style="stop-color:#634323;stop-opacity:0.8528"/>
			<stop  offset="0.369" style="stop-color:#72512E;stop-opacity:0.631"/>
			<stop  offset="0.638" style="stop-color:#8C6A41;stop-opacity:0.362"/>
			<stop  offset="0.9415" style="stop-color:#B3925F;stop-opacity:0.0585"/>
			<stop  offset="1" style="stop-color:#BC9B66;stop-opacity:0"/>
		</linearGradient>
		<path fill="url(#SVGID_5_)" d="M151.703,166.639c1.324,7.859,26.878,2.433,36.782-3.74c2.85-1.777,3.043-9.401,2.683-9.676
			C183.721,147.592,161.94,134.641,151.703,166.639"/>
		<g opacity="0.98">
			<g>
				<path fill="#291E16" d="M168.977,148.321c9.745-2.496,19.359,1.175,22.993,8.311c-0.053-0.954-0.176-1.897-0.423-2.851
					c-2.371-8.893-13.137-13.823-24.047-11.023c-10.92,2.806-17.846,12.283-15.478,21.17c0.247,0.954,0.621,1.854,1.048,2.692
					C152.673,158.651,159.238,150.82,168.977,148.321z"/>
			</g>
			<g>
				<path fill="#291E16" d="M164.707,158.648c3.23-0.827,6.537,0.786,7.874,3.682c-0.026-0.375-0.094-0.754-0.196-1.144
					c-0.943-3.569-4.645-5.696-8.265-4.762c-3.635,0.931-5.802,4.566-4.859,8.135c0.103,0.37,0.233,0.741,0.392,1.074
					C159.385,162.47,161.467,159.474,164.707,158.648z"/>
			</g>
			<g>
				<path fill="#291E16" d="M179.897,155.332c-3.259,0.708-5.451,3.624-5.312,6.812c-0.144-0.372-0.264-0.741-0.355-1.119
					c-0.811-3.592,1.509-7.155,5.17-7.936c3.662-0.795,7.279,1.471,8.081,5.071c0.096,0.387,0.132,0.769,0.151,1.144
					C186.406,156.371,183.174,154.625,179.897,155.332z"/>
			</g>
			<path fill="#291E16" d="M172.511,161.281c0.156,1.833-1.245,3.444-3.12,3.603c-1.867,0.151-3.509-1.229-3.656-3.072
				c-0.156-1.84,1.24-3.436,3.119-3.589C170.725,158.066,172.362,159.435,172.511,161.281z"/>
			<path fill="#291E16" d="M181.626,160.565c0.145,1.834-1.243,3.452-3.12,3.591c-1.868,0.157-3.521-1.212-3.669-3.052
				c-0.146-1.852,1.249-3.464,3.126-3.615C179.835,157.356,181.47,158.719,181.626,160.565z"/>
		</g>
	</g>
	
		<linearGradient id="SVGID_6_" gradientUnits="userSpaceOnUse" x1="-2095.3169" y1="2888.1289" x2="-2089.2896" y2="2888.1289" gradientTransform="matrix(-0.8543 0.5196 -0.5196 -0.8543 -87.8047 3747.8547)">
		<stop  offset="0" style="stop-color:#A27F50"/>
		<stop  offset="0.4343" style="stop-color:#AA8756;stop-opacity:0.5657"/>
		<stop  offset="1" style="stop-color:#BC9B66;stop-opacity:0"/>
	</linearGradient>
	<path fill="url(#SVGID_6_)" d="M202.408,204.802c0,0,3.862-17.197-10.438-20.695"/>
	<linearGradient id="SVGID_7_" gradientUnits="userSpaceOnUse" x1="21.8369" y1="147.583" x2="76.0815" y2="147.583">
		<stop  offset="0" style="stop-color:#A27F50"/>
		<stop  offset="0.2232" style="stop-color:#AD8B59;stop-opacity:0.7768"/>
		<stop  offset="0.5858" style="stop-color:#B89762;stop-opacity:0.4142"/>
		<stop  offset="1" style="stop-color:#BC9B66;stop-opacity:0"/>
	</linearGradient>
	<path fill="url(#SVGID_7_)" d="M39.846,157.604c-11.607-9.242-15.582-23.75-10.093-34.292c-1.119,0.897-2.17,1.882-3.105,3.018
		c-8.717,10.583-5.266,27.54,7.74,37.898c13.01,10.335,30.609,10.144,39.335-0.443c0.934-1.127,1.706-2.345,2.358-3.606
		C66.735,167.647,51.453,166.847,39.846,157.604z"/>
	
		<linearGradient id="SVGID_8_" gradientUnits="userSpaceOnUse" x1="-1386.29" y1="4581.04" x2="-1332.9937" y2="4581.04" gradientTransform="matrix(-0.338 -0.9412 0.9412 -0.338 -4486.2051 370.6281)">
		<stop  offset="0" style="stop-color:#BC9B66;stop-opacity:0"/>
		<stop  offset="0.315" style="stop-color:#B2905D;stop-opacity:0.315"/>
		<stop  offset="1" style="stop-color:#A27F50"/>
	</linearGradient>
	<path fill="url(#SVGID_8_)" d="M297.683,106.979c-4.938,13.843-17.484,22.432-29.455,20.915c1.248,0.733,2.546,1.366,3.95,1.849
		c13.085,4.486,28.18-4.443,33.682-19.945c5.52-15.534-0.631-31.745-13.714-36.228c-1.397-0.491-2.822-0.798-4.254-0.982
		C298.211,78.718,302.596,93.111,297.683,106.979z"/>
	<path fill="#F8ECCB" stroke="#462D1B" stroke-width="2" d="M195.899,219.271c-6.293,16.972-23.641,28.059-38.75,24.766
		c-15.109-3.295-22.255-19.725-15.965-36.693c6.296-16.971,23.646-28.06,38.756-24.766
		C195.046,185.871,202.191,202.3,195.899,219.271z"/>
	<g>
		
			<linearGradient id="SVGID_9_" gradientUnits="userSpaceOnUse" x1="1067.1899" y1="1073.2041" x2="1130.3062" y2="1073.2041" gradientTransform="matrix(0.3773 0.9261 -0.9261 0.3773 719.5145 -1190.3137)">
			<stop  offset="0" style="stop-color:#A27F50"/>
			<stop  offset="0.4343" style="stop-color:#AA8756;stop-opacity:0.5657"/>
			<stop  offset="1" style="stop-color:#BC9B66;stop-opacity:0"/>
		</linearGradient>
		<path fill="url(#SVGID_9_)" d="M129.726,202.339c0,0,1.565,10.971,4.512,20.192c3.921,12.31,16.964,32.513,25.801,35.611
			C160.039,258.143,117.833,243.165,129.726,202.339z"/>
		<g opacity="0.26">
			<path fill="#291E16" d="M133.778,215.813c0,0,2.391,9.164,4.091,13.342c2.243,5.605,10.504,19.449,15.034,19.991
				C152.903,249.146,128.684,237.129,133.778,215.813z"/>
		</g>
	</g>
	<path fill="#291E16" d="M161.876,185.045c0,0,43.397,6.128,34.022,34.226c0,0-17.667,37.24-46.632,20.42
		c0,0-9.466-7.104-9.466-18.101C139.801,208.704,142.948,195.378,161.876,185.045z"/>
	<path fill="#F8ECCB" d="M139.801,222.468c-0.021-0.814,21.996-1.39,33.767,19.68c0,0-13.33,6.348-24.301-3.184
		C149.267,238.964,140.17,237.134,139.801,222.468z"/>
</g>
<g>
	<path fill="none" stroke="#DED96D" stroke-width="3" stroke-miterlimit="10" d="M260.003,172.241
		c-2.725,16.721,5.403,33.268,1.372,51.701c-2.893,13.188-8.04,24.968-15.252,36.308c-9.233,14.521-21.011,26.601-34.099,37.242"/>
	<path fill="none" stroke="#DED96D" stroke-width="3" stroke-miterlimit="10" d="M236.336,186.79
		c-1.803,11.051,3.569,21.986,0.901,34.169c-1.911,8.706-5.315,16.493-10.08,23.983c-6.1,9.596-13.879,17.576-22.525,24.609"/>
	<path fill="none" stroke="#DED96D" stroke-width="3" stroke-miterlimit="10" d="M218.352,195.94
		c-1.175,7.176,2.32,14.277,0.587,22.189c-1.242,5.654-3.453,10.715-6.545,15.59c-3.961,6.225-9.023,11.403-14.636,15.977"/>
</g>
<g>
</g>
<g>
</g>
<g>
</g>
<g>
</g>
<g>
</g>
<g>
</g>
</svg>
